<svg viewBox="0 0 19 15" xmlns="http://www.w3.org/2000/svg"><path d="m1281.82 97.624c.24.17.97.677 2.18 1.518s2.13 1.489 2.78 1.944l.45.325q.345.251.57.405c.15.1.33.218.55.346a3.287 3.287 0 0 0 .61.287 1.684 1.684 0 0 0 .53.1h.02a1.684 1.684 0 0 0 .53-.1 3.068 3.068 0 0 0 .61-.287c.22-.128.4-.243.55-.346s.34-.238.57-.405l.45-.325c.66-.455 2.31-1.609 4.97-3.462a5.2 5.2 0 0 0 1.29-1.31 2.8 2.8 0 0 0 .52-1.614 1.709 1.709 0 0 0 -1.7-1.7h-15.6a1.507 1.507 0 0 0 -1.26.554 2.177 2.177 0 0 0 -.44 1.385 2.48 2.48 0 0 0 .58 1.454 5.449 5.449 0 0 0 1.24 1.231zm16.12 1.14q-3.48 2.365-5.28 3.675c-.4.3-.73.531-.98.7a6.268 6.268 0 0 1 -1 .511 3.074 3.074 0 0 1 -1.17.261h-.02a3.074 3.074 0 0 1 -1.17-.261 6.268 6.268 0 0 1 -1-.511c-.25-.167-.58-.4-.98-.7q-1.425-1.054-5.27-3.675a5.685 5.685 0 0 1 -1.07-.927v8.463a1.656 1.656 0 0 0 .5 1.2 1.624 1.624 0 0 0 1.2.5h15.6a1.624 1.624 0 0 0 1.2-.5 1.656 1.656 0 0 0 .5-1.2v-8.463a5.821 5.821 0 0 1 -1.06.927z" fill="#fff" fill-rule="evenodd" transform="translate(-1280 -93)"/></svg>